<svg xmlns="http://www.w3.org/2000/svg" height="24" viewBox="0 -960 960 960" width="24"><path d="M461.731-440.615v-360.616h36.923v360.616h-36.923Zm18.331 275.077q-65.139 0-122.305-24.711-57.166-24.71-99.967-67.485t-67.526-99.945Q165.538-414.848 165.538-480q0-70.192 30.385-132.712 30.384-62.519 83.5-107.75l25.808 25.936q-48.769 38.833-75.769 94.93-27 56.096-27 119.385 0 115.348 81.261 196.549 81.261 81.2 196.216 81.2 115.946 0 196.773-81.279Q757.538-365.02 757.538-480q0-63.5-26.5-119.827t-75.769-94.699l25.808-25.936q53.665 44.759 83.525 107.514 29.86 62.756 29.86 132.793 0 65.4-24.776 122.548-24.775 57.148-67.365 99.935-42.59 42.788-99.748 67.461-57.157 24.673-122.511 24.673Z"/></svg>